<?xml version="1.0" encoding="utf-8"?>
<!-- Generator: Adobe Illustrator 25.4.1, SVG Export Plug-In . SVG Version: 6.00 Build 0)  -->
<svg version="1.1" id="Lag_1" xmlns="http://www.w3.org/2000/svg" xmlns:xlink="http://www.w3.org/1999/xlink" x="0px" y="0px"
	 viewBox="0 0 1899.1 1229.3" style="enable-background:new 0 0 1899.1 1229.3;" xml:space="preserve">
<style type="text/css">
	.st0{fill:none;stroke:#FF0000;stroke-width:0.4018;stroke-miterlimit:11.3386;}
	.st1{fill:none;stroke:#000000;stroke-width:0.1417;}
	.st2{fill:none;stroke:#000000;stroke-width:0.4018;stroke-miterlimit:11.3386;}
	.st3{fill-rule:evenodd;clip-rule:evenodd;fill:#FF8000;}
</style>
<path class="st0" d="M363.1,692v-39.8h11.3v-22.7h-11.3v-22.7h11.3v-22.7h-11.3v-22.7h11.3v-22.7h-11.3v-22.7h11.3v-22.7h-11.3
	v-22.7h11.3v-22.7h-11.3v-22.7h11.3v-22.7h-11.3V380h11.3v-22.6h-11.3v-39.9l-0.2-7.1l-0.8-7l-1.3-7l-1.7-6.9l-2.2-6.7l-2.8-6.5
	l-3.2-6.3l-3.6-6.1l-4-5.8l-4.5-5.5l-4.8-5.2l-5.2-4.8l-5.6-4.5l-5.8-4l-6.1-3.6l-6.3-3.2l-6.5-2.7l-6.7-2.2l-6.9-1.7l-7-1.3l-7-0.8
	l-7-0.2h-18v-11.3h-22.7v11.3h-22.7v-11.3h-22.7v11.3h-22.7v-11.3h-22.7v11.3h-18l-7.1,0.2l-7,0.8l-7,1.3l-6.9,1.7l-6.7,2.2
	l-6.5,2.7l-6.3,3.2l-6.1,3.6l-5.8,4l-5.5,4.4l-5.2,4.8l-4.8,5.2L35,258l-4,5.8l-3.7,6.2l-3.2,6.3l-2.7,6.6l-2.2,6.7l-1.7,6.9l-1.2,7
	l-0.8,7l-0.2,7v36.9H3.9v22.7h11.3v22.7H3.9v22.7h11.3v22.7H3.9v22.7h11.3v73.9H3.9v22.7h11.3v22.7H3.9v22.7h11.3v22.7H3.9v22.7
	h11.3V692l0.3,7.1l0.7,7l1.3,7l1.7,6.9l2.2,6.7l2.7,6.5l3.2,6.3l3.6,6.1l4,5.8l4.5,5.5l4.8,5.2l5.2,4.8l5.6,4.5l5.8,4l6.1,3.6
	l6.3,3.2l6.5,2.7l6.7,2.2l6.8,1.8l7,1.3l7,0.7l7,0.2h18v11.3h22.7v-11.4h22.7v11.3h22.7v-11.3h22.7v11.3h22.7v-11.3h18l7.1-0.2
	l7-0.8l7-1.2l6.9-1.8l6.7-2.2l6.6-2.7l6.3-3.2l6.1-3.6l5.8-4l5.5-4.5l5.2-4.8l4.8-5.2l4.4-5.5l4-5.8l3.6-6.1l3.2-6.4l2.7-6.5
	l2.2-6.7l1.8-6.9l1.3-7l0.7-7L363.1,692z"/>
<path class="st0" d="M742.1,692v-39.8h11.3v-22.7h-11.3v-22.7h11.3v-22.7h-11.3v-22.7h11.3v-22.7h-11.3v-22.7h11.3v-22.7h-11.3
	v-22.7h11.3v-22.7h-11.3v-22.7h11.3v-22.7h-11.3V380h11.3v-22.6h-11.3v-39.9l-0.3-7.1l-0.8-7l-1.3-7l-1.8-6.9l-2.2-6.7l-2.7-6.6
	l-3.2-6.3l-3.6-6.1l-4.1-5.8l-4.4-5.5l-4.8-5.2l-5.2-4.8l-5.5-4.5l-5.8-4l-6.1-3.6l-6.3-3.2l-6.6-2.7l-6.7-2.2l-6.9-1.7l-7-1.3
	l-7-0.8l-7-0.2h-18v-11.3h-22.7v11.3h-22.7v-11.3h-22.7v11.3h-22.7v-11.3h-22.6v11.3h-18l-7.1,0.2l-7,0.8l-7,1.3l-6.9,1.7l-6.7,2.2
	l-6.6,2.7l-6.3,3.2l-6.1,3.6l-5.8,4l-5.5,4.4l-5.2,4.8l-4.8,5.2L414,258l-4,5.8l-3.6,6.1l-3.2,6.3l-2.7,6.6l-2.2,6.7l-1.8,6.9
	l-1.2,7l-0.8,7l-0.2,7v36.9h-11.4v22.8h11.3v22.7h-11.3v22.7h11.3v22.7h-11.3v22.7h11.3v73.9h-11.3v22.7h11.3v22.7h-11.3v22.7h11.3
	v22.7h-11.3v22.7h11.3V692l0.2,7.1l0.8,7l1.3,7l1.8,6.9l2.2,6.7l2.7,6.5l3.2,6.3l3.6,6.1l4,5.8l4.5,5.5l4.8,5.2l5.2,4.8l5.5,4.5
	l5.8,4l6.1,3.6l6.3,3.2l6.6,2.7l6.7,2.2l6.9,1.7l7,1.3l7.1,0.8l7,0.2h18v11.3h22.6v-11.3h22.7v11.3h22.7v-11.3h22.7v11.3h22.7v-11.3
	h18l7.1-0.2l7-0.8l7-1.2l6.9-1.8l6.7-2.2l6.5-2.7l6.3-3.2l6.1-3.6l5.8-4l5.5-4.5l5.2-4.8l4.8-5.2l4.4-5.5l4-5.8l3.6-6.1l3.2-6.4
	l2.7-6.5l2.2-6.7l1.7-6.9l1.3-7l0.8-7L742.1,692z"/>
<path class="st0" d="M2.1,0v198.4h36.9v-11.3h22.7v11.3h22.7v-11.3h22.7v11.3h22.7v-11.3h22.7v11.3h210.8v-11.3h22.7v11.3h22.7
	v-11.3h22.7v11.3h22.7v-11.3h22.7v11.3h213.7v-11.3H713v11.3h22.7v-11.3h22.7v11.3H781v-11.3h22.7v11.3h22.7v-11.3h22.7v11.3h22.7
	v-11.3h22.7v11.3h22.7v-11.3h22.7v11.3h22.7v-11.3h22.6v11.3h213.7v-11.3h22.7v11.3h22.7v-11.3h22.7v11.3h22.7v-11.3h22.7v11.3H1523
	v-11.3h22.7v11.3h22.7v-11.3h22.7v11.3h22.7v-11.3h22.7v11.3h37V0h-37v11.3h-22.7V0H1591v11.3h-22.7V0h-22.7v11.3H1523V0h-210.8
	v11.3h-22.7V0h-22.7v11.3h-22.7V0h-22.7v11.3h-22.7V0H985.1v11.3h-22.7V0h-22.7v11.3h-22.7V0h-22.7v11.3h-22.7V0h-22.6v11.3h-22.7V0
	h-22.7v11.3H781V0h-22.7v11.3h-22.7V0H713v11.3h-22.7V0H476.6v11.3h-22.7V0h-22.7v11.3h-22.7V0h-22.7v11.3h-22.7V0H152.4v11.3h-22.7
	V0h-22.6v11.3H84.4V0H61.7v11.3H39.1V0H2.1z"/>
<rect x="684.7" y="49.6" class="st1" width="306.1" height="99.2"/>
<circle class="st1" cx="189.2" cy="353.5" r="106.3"/>
<rect x="139.6" y="485.3" class="st1" width="155.9" height="243.8"/>
<circle class="st1" cx="96.2" cy="553.8" r="11.1"/>
<circle class="st1" cx="96.3" cy="660.2" r="11.1"/>
<circle class="st1" cx="458.9" cy="139" r="7.2"/>
<path class="st2" d="M373.3,153.2v-35h17.6l2.8,2.7v28.6l-2.8,3.6C390.9,153.3,383.8,153.2,373.3,153.2z"/>
<circle class="st1" cx="1214.3" cy="139" r="7.2"/>
<circle class="st1" cx="1286.4" cy="139" r="14.2"/>
<path class="st2" d="M491.1,183.5v-49.4"/>
<path class="st2" d="M491.1,134.1V65"/>
<path class="st2" d="M491.1,65V15.6"/>
<path class="st2" d="M625.5,183.5v-49.4"/>
<path class="st2" d="M625.5,134.1V65"/>
<path class="st2" d="M625.5,65V15.6"/>
<path class="st2" d="M500.6,198.4v-90.7"/>
<path class="st2" d="M500.6,94.6V0.7"/>
<path class="st2" d="M510.3,183.5v-49.4"/>
<path class="st2" d="M510.3,134.1V65"/>
<path class="st2" d="M510.3,65V15.6"/>
<path class="st2" d="M519.8,198.4v-90.7"/>
<path class="st2" d="M519.8,94.6V0.7"/>
<path class="st2" d="M529.5,183.5v-49.4"/>
<path class="st2" d="M529.5,134.1V65"/>
<path class="st2" d="M529.5,65V15.6"/>
<path class="st2" d="M539,198.4v-90.7"/>
<path class="st2" d="M539,94.6V0.7"/>
<path class="st2" d="M548.7,183.5v-49.4"/>
<path class="st2" d="M548.7,134.1V65"/>
<path class="st2" d="M548.7,65V15.6"/>
<path class="st2" d="M558.2,198.4v-90.7"/>
<path class="st2" d="M558.2,94.6V0.7"/>
<path class="st2" d="M567.9,183.5v-49.4"/>
<path class="st2" d="M567.9,134.1V65"/>
<path class="st2" d="M567.9,65V15.6"/>
<path class="st2" d="M577.5,198.4v-90.7"/>
<path class="st2" d="M577.5,94.6V0.7"/>
<path class="st2" d="M587.1,183.5v-49.4"/>
<path class="st2" d="M587.1,134.1V65"/>
<path class="st2" d="M587.1,65V15.6"/>
<path class="st2" d="M596.7,198.4v-90.7"/>
<path class="st2" d="M596.7,94.6V0.7"/>
<path class="st2" d="M606.3,183.5v-49.4"/>
<path class="st2" d="M606.3,134.1V65"/>
<path class="st2" d="M606.3,65V15.6"/>
<path class="st2" d="M615.9,198.4v-90.7"/>
<path class="st2" d="M615.9,94.6V0.7"/>
<path class="st2" d="M642.7,183.5v-49.4"/>
<path class="st2" d="M642.7,134.1V65"/>
<path class="st2" d="M642.7,65V15.6"/>
<path class="st2" d="M633,198.4v-90.7"/>
<path class="st2" d="M633,94.6V0.7"/>
<path class="st2" d="M185.8,183.5v-49.4"/>
<path class="st2" d="M185.8,134.1V65"/>
<path class="st2" d="M185.8,65V15.6"/>
<path class="st2" d="M320.3,183.5v-49.4"/>
<path class="st2" d="M320.3,134.1V65"/>
<path class="st2" d="M320.3,65V15.6"/>
<path class="st2" d="M195.4,198.4v-90.7"/>
<path class="st2" d="M195.4,94.6V0.7"/>
<path class="st2" d="M205,183.5v-49.4"/>
<path class="st2" d="M205,134.1V65"/>
<path class="st2" d="M205,65V15.6"/>
<path class="st2" d="M214.6,198.4v-90.7"/>
<path class="st2" d="M214.6,94.6V0.7"/>
<path class="st2" d="M224.2,183.5v-49.4"/>
<path class="st2" d="M224.2,134.1V65"/>
<path class="st2" d="M224.2,65V15.6"/>
<path class="st2" d="M233.8,198.4v-90.7"/>
<path class="st2" d="M233.8,94.6V0.7"/>
<path class="st2" d="M243.5,183.5v-49.4"/>
<path class="st2" d="M243.5,134.1V65"/>
<path class="st2" d="M243.5,65V15.6"/>
<path class="st2" d="M253,198.4v-90.7"/>
<path class="st2" d="M253,94.6V0.7"/>
<path class="st2" d="M262.7,183.5v-49.4"/>
<path class="st2" d="M262.7,134.1V65"/>
<path class="st2" d="M262.7,65V15.6"/>
<path class="st2" d="M272.2,198.4v-90.7"/>
<path class="st2" d="M272.2,94.6V0.7"/>
<path class="st2" d="M281.9,183.5v-49.4"/>
<path class="st2" d="M281.9,134.1V65"/>
<path class="st2" d="M281.9,65V15.6"/>
<path class="st2" d="M291.4,198.4v-90.7"/>
<path class="st2" d="M291.4,94.6V0.7"/>
<path class="st2" d="M301.1,183.5v-49.4"/>
<path class="st2" d="M301.1,134.1V65"/>
<path class="st2" d="M301.1,65V15.6"/>
<path class="st2" d="M310.7,198.4v-90.7"/>
<path class="st2" d="M310.7,94.6V0.7"/>
<path class="st2" d="M337.5,183.5v-49.4"/>
<path class="st2" d="M337.5,134.1V65"/>
<path class="st2" d="M337.5,65V15.6"/>
<path class="st2" d="M327.8,198.4v-90.7"/>
<path class="st2" d="M327.8,94.6V0.7"/>
<path class="st2" d="M1021.4,183.5v-49.4"/>
<path class="st2" d="M1021.4,134.1V65"/>
<path class="st2" d="M1021.4,65V15.6"/>
<path class="st2" d="M1155.9,183.5v-49.4"/>
<path class="st2" d="M1155.9,134.1V65"/>
<path class="st2" d="M1155.9,65V15.6"/>
<path class="st2" d="M1031,198.4v-90.7"/>
<path class="st2" d="M1031,94.6V0.7"/>
<path class="st2" d="M1040.6,183.5v-49.4"/>
<path class="st2" d="M1040.6,134.1V65"/>
<path class="st2" d="M1040.6,65V15.6"/>
<path class="st2" d="M1050.2,198.4v-90.7"/>
<path class="st2" d="M1050.2,94.6V0.7"/>
<path class="st2" d="M1059.9,183.5v-49.4"/>
<path class="st2" d="M1059.9,134.1V65"/>
<path class="st2" d="M1059.9,65V15.6"/>
<path class="st2" d="M1069.4,198.4v-90.7"/>
<path class="st2" d="M1069.4,94.6V0.7"/>
<path class="st2" d="M1079.1,183.5v-49.4"/>
<path class="st2" d="M1079.1,134.1V65"/>
<path class="st2" d="M1079.1,65V15.6"/>
<path class="st2" d="M1088.6,198.4v-90.7"/>
<path class="st2" d="M1088.6,94.6V0.7"/>
<path class="st2" d="M1098.3,183.5v-49.4"/>
<path class="st2" d="M1098.3,134.1V65"/>
<path class="st2" d="M1098.3,65V15.6"/>
<path class="st2" d="M1107.8,198.4v-90.7"/>
<path class="st2" d="M1107.8,94.6V0.7"/>
<path class="st2" d="M1117.5,183.5v-49.4"/>
<path class="st2" d="M1117.5,134.1V65"/>
<path class="st2" d="M1117.5,65V15.6"/>
<path class="st2" d="M1127.1,198.4v-90.7"/>
<path class="st2" d="M1127.1,94.6V0.7"/>
<path class="st2" d="M1136.7,183.5v-49.4"/>
<path class="st2" d="M1136.7,134.1V65"/>
<path class="st2" d="M1136.7,65V15.6"/>
<path class="st2" d="M1146.3,198.4v-90.7"/>
<path class="st2" d="M1146.3,94.6V0.7"/>
<path class="st2" d="M1173.1,183.5v-49.4"/>
<path class="st2" d="M1173.1,134.1V65"/>
<path class="st2" d="M1173.1,65V15.6"/>
<path class="st2" d="M1163.4,198.4v-90.7"/>
<path class="st2" d="M1163.4,94.6V0.7"/>
<path class="st2" d="M1326.7,183.5v-49.4"/>
<path class="st2" d="M1326.7,134.1V65"/>
<path class="st2" d="M1326.7,65V15.6"/>
<path class="st2" d="M1461.1,183.5v-49.4"/>
<path class="st2" d="M1461.1,134.1V65"/>
<path class="st2" d="M1461.1,65V15.6"/>
<path class="st2" d="M1336.2,198.4v-90.7"/>
<path class="st2" d="M1336.2,94.6V0.7"/>
<path class="st2" d="M1345.9,183.5v-49.4"/>
<path class="st2" d="M1345.9,134.1V65"/>
<path class="st2" d="M1345.9,65V15.6"/>
<path class="st2" d="M1355.4,198.4v-90.7"/>
<path class="st2" d="M1355.4,94.6V0.7"/>
<path class="st2" d="M1365.1,183.5v-49.4"/>
<path class="st2" d="M1365.1,134.1V65"/>
<path class="st2" d="M1365.1,65V15.6"/>
<path class="st2" d="M1374.6,198.4v-90.7"/>
<path class="st2" d="M1374.6,94.6V0.7"/>
<path class="st2" d="M1384.3,183.5v-49.4"/>
<path class="st2" d="M1384.3,134.1V65"/>
<path class="st2" d="M1384.3,65V15.6"/>
<path class="st2" d="M1393.9,198.4v-90.7"/>
<path class="st2" d="M1393.9,94.6V0.7"/>
<path class="st2" d="M1403.5,183.5v-49.4"/>
<path class="st2" d="M1403.5,134.1V65"/>
<path class="st2" d="M1403.5,65V15.6"/>
<path class="st2" d="M1413.1,198.4v-90.7"/>
<path class="st2" d="M1413.1,94.6V0.7"/>
<path class="st2" d="M1422.7,183.5v-49.4"/>
<path class="st2" d="M1422.7,134.1V65"/>
<path class="st2" d="M1422.7,65V15.6"/>
<path class="st2" d="M1432.3,198.4v-90.7"/>
<path class="st2" d="M1432.3,94.6V0.7"/>
<path class="st2" d="M1441.9,183.5v-49.4"/>
<path class="st2" d="M1441.9,134.1V65"/>
<path class="st2" d="M1441.9,65V15.6"/>
<path class="st2" d="M1451.5,198.4v-90.7"/>
<path class="st2" d="M1451.5,94.6V0.7"/>
<path class="st2" d="M1478.3,183.5v-49.4"/>
<path class="st2" d="M1478.3,134.1V65"/>
<path class="st2" d="M1478.3,65V15.6"/>
<path class="st2" d="M1468.6,198.4v-90.7"/>
<path class="st2" d="M1468.6,94.6V0.7"/>
<path class="st3" d="M68.6,555.5c0.5-1.1,0.2-2.4-0.6-3.3l-0.1-0.1l-6.7-5.8v-1.8c0-2.3-1.8-4.1-4.1-4.1h-2.6
	c-2.3,0-4.1,1.8-4.1,4.1v1.8l-6.7,5.8l-0.1,0.1c-0.6,0.6-0.9,1.3-0.9,2.1c0,0.4,0.1,0.8,0.2,1.2c0.5,1.1,1.6,1.9,2.8,1.9
	c0.6,0,1-0.4,1-1c0-0.6-0.4-1-1-1c-0.4,0-0.8-0.2-0.9-0.6c-0.2-0.4-0.1-0.8,0.2-1.1l7-6c0.2-0.2,0.4-0.5,0.4-0.8v-2.3
	c0-1.1,0.9-2,2-2H57c1.1,0,2,0.9,2,2v2.3c0,0.3,0.1,0.6,0.4,0.8l7,6c0.2,0.3,0.3,0.7,0.2,1.1c-0.2,0.3-0.5,0.6-0.9,0.6H50.9
	c-0.6,0-1,0.4-1,1c0,0.6,0.4,1,1,1h14.8C66.9,557.3,68,556.6,68.6,555.5z"/>
<path class="st3" d="M52.9,561.6c0.9,0.5,1.9,0.8,2.9,0.8c1,0,2-0.2,2.9-0.8c0.5-0.3,0.6-0.9,0.4-1.4c-0.3-0.5-0.9-0.7-1.4-0.4
	c-1.2,0.7-2.6,0.7-3.8,0c-0.2-0.1-0.5-0.2-0.8-0.1c-0.3,0.1-0.5,0.3-0.6,0.5c-0.1,0.2-0.1,0.3-0.1,0.5
	C52.3,561.1,52.5,561.5,52.9,561.6z"/>
<path class="st3" d="M63.8,563.1c0.3-0.4,0.3-1-0.1-1.3c-0.4-0.4-0.9-0.4-1.3-0.1c-1.7,1.8-4.1,2.8-6.6,2.8s-4.9-1-6.6-2.8
	c-0.4-0.4-1-0.4-1.4,0c-0.2,0.2-0.3,0.4-0.3,0.7c0,0.3,0.1,0.5,0.3,0.7c2.1,2.2,5,3.4,8,3.4S61.7,565.3,63.8,563.1L63.8,563.1z"/>
<path class="st3" d="M75.7,533.3c4-3.8,9-6.5,14.4-7.8c2.7-0.6,5.6-0.9,8.4-0.6c2.8,0.2,5.6,0.9,8.3,1.9c5.4,2,10.2,5.4,13.8,9.8
	c3.7,4.5,6,10.1,6.4,16c0.4,5.9-0.9,11.8-3.8,17c-6,10.7-17.6,17-29.8,16.2c-3-0.2-6-0.8-8.8-1.8c-1.4-0.5-2.8-1.1-4.1-1.9
	c-0.7-0.4-1.3-0.7-1.9-1.1c-0.8-0.6-1.1-1.5-1-2.4c0.1-1,0.7-2,1.6-2.4l0.1-0.1c0.7-0.4,1.6-0.5,2.4-0.1c0.5,0.3,1.1,0.7,1.6,1
	c1.1,0.6,2.2,1.1,3.3,1.6c2.3,0.9,4.7,1.5,7.2,1.7c5,0.4,10-0.5,14.5-2.8c4.5-2.3,8.3-5.8,10.9-10.1c2.6-4.4,4-9.4,3.9-14.5
	c-0.1-5.2-1.9-10.2-5-14.3c-3.2-4.2-7.4-7.5-12.2-9.7c-4.9-2.3-10.3-3-15.6-2.2c-2.7,0.5-5.2,1.3-7.7,2.4
	C80.1,530.2,77.8,531.6,75.7,533.3z"/>
<path class="st3" d="M63.9,660.3c0,0.1,0,0.3,0.1,0.4c0.1,0.1,0.2,0.1,0.4,0.1h4.3c0.3,0,0.5-0.2,0.5-0.5s-0.2-0.5-0.5-0.5h-4.3
	c-0.1,0-0.3,0-0.4,0.1C63.9,660,63.9,660.2,63.9,660.3z"/>
<path class="st3" d="M61.7,654.2c-0.1,0.1-0.2,0.2-0.2,0.4c0,0.2,0.1,0.3,0.2,0.4c0.1,0.1,0.2,0.2,0.3,0.2c0.1,0,0.3-0.1,0.4-0.2
	l3-3.1c0.3-0.2,0.5-0.4,0.5-0.7s-0.2-0.5-0.5-0.5s-0.5,0.2-0.7,0.5L61.7,654.2z"/>
<path class="st3" d="M51,666.4c0.3-0.2,0.5-0.4,0.5-0.7c0-0.3-0.2-0.5-0.5-0.5c-0.3,0-0.5,0.2-0.7,0.5l-3.1,3.1
	c-0.1,0.1-0.2,0.2-0.2,0.4c0,0.2,0.1,0.3,0.2,0.4c0.1,0.1,0.2,0.2,0.4,0.2c0.1,0,0.3-0.1,0.4-0.2L51,666.4z"/>
<path class="st3" d="M56.4,652.8c0.1,0,0.3,0,0.4-0.1c0.1-0.1,0.1-0.2,0.1-0.4v-4.4c0-0.3-0.2-0.5-0.5-0.5c-0.3,0-0.5,0.2-0.5,0.5
	v4.3c0,0.1,0,0.3,0.1,0.4C56.1,652.7,56.2,652.8,56.4,652.8z"/>
<path class="st3" d="M56.9,672.7v-4.3c0-0.3-0.2-0.5-0.5-0.5c-0.3,0-0.5,0.2-0.5,0.5v4.3c0,0.1,0,0.3,0.1,0.4
	c0.1,0.1,0.2,0.1,0.4,0.1C56.6,673.2,56.9,673,56.9,672.7z"/>
<path class="st3" d="M51,654.2l-3.1-3.1c-0.1-0.1-0.2-0.2-0.4-0.2c-0.1,0-0.3,0.1-0.4,0.2c-0.1,0.1-0.2,0.2-0.2,0.4
	c0,0.2,0.1,0.3,0.2,0.4l3.1,3.1c0.1,0.1,0.2,0.2,0.4,0.2c0.1,0,0.3-0.1,0.4-0.2C51.2,654.8,51.2,654.4,51,654.2z"/>
<path class="st3" d="M61.5,666c0,0.2,0.1,0.3,0.2,0.4l3.1,3.1c0.3-0.2,0.5-0.4,0.7-0.7l-3.1-3.1c-0.1-0.1-0.2-0.2-0.4-0.2
	c-0.1,0-0.3,0.1-0.3,0.2C61.6,665.7,61.5,665.9,61.5,666z"/>
<path class="st3" d="M61,664.8c1.2-1.2,1.9-2.9,1.8-4.6c0-1.6-0.7-3.2-1.8-4.4c-1.1-1.2-2.7-1.9-4.4-1.9c-2.2-0.1-4.3,0.9-5.5,2.7
	c-0.4,0.6-1.1,0.9-1.8,0.9h-0.4c-0.5,0-0.9,0.2-1.3,0.5c-0.3,0.3-0.5,0.8-0.5,1.3v2.4c0,0.2-0.2,0.4-0.4,0.4c-0.2,0-0.5-0.2-0.5-0.4
	v-2.8c-0.1-0.8-0.7-1.4-1.5-1.4c-0.4,0-0.7,0.1-1,0.4c-0.3,0.3-0.4,0.6-0.4,1v0.2c0,0.3-0.3,0.6-0.6,0.6c-0.3,0-0.4,0.2-0.4,0.5
	c0,0.3,0.1,0.5,0.4,0.5c0.9,0,1.7-0.8,1.7-1.7v-0.1c0-0.2,0.2-0.4,0.4-0.4c0.2,0,0.5,0.2,0.5,0.4v2.7c0,0.4,0.2,0.7,0.5,1
	c0.3,0.3,0.7,0.4,1,0.4c0.4,0,0.7-0.1,1-0.4s0.4-0.6,0.4-1v-2.4c0-0.2,0.1-0.4,0.2-0.6c0.2-0.2,0.4-0.2,0.6-0.2h0.4
	c1,0,2-0.5,2.6-1.4c1.1-1.5,2.8-2.3,4.6-2.2c2.9,0.1,5.2,2.5,5.2,5.4c0,1.5-0.6,2.9-1.6,3.9s-2.4,1.6-3.9,1.6
	c-1.7,0-3.4-0.8-4.4-2.2c-0.6-0.9-1.6-1.4-2.7-1.4c-0.3,0-0.5,0.2-0.5,0.5c0,0.3,0.2,0.5,0.5,0.5c0.7,0,1.4,0.4,1.8,0.9
	c1.2,1.7,3.1,2.7,5.2,2.7C58,666.8,59.7,666.1,61,664.8z"/>
<path class="st3" d="M75.7,640c4-3.8,9-6.5,14.4-7.8c2.7-0.6,5.6-0.9,8.4-0.6c2.8,0.2,5.6,0.9,8.3,1.9c5.4,2,10.2,5.4,13.8,9.8
	c3.7,4.5,6,10.1,6.4,16c0.4,5.9-0.9,11.8-3.8,17c-6,10.7-17.6,17-29.8,16.2c-3-0.2-6-0.8-8.8-1.8c-1.4-0.5-2.8-1.1-4.1-1.9
	c-0.7-0.4-1.3-0.7-1.9-1.1c-0.8-0.6-1.1-1.5-1-2.4c0.1-1,0.7-2,1.6-2.4l0.1-0.1c0.7-0.4,1.6-0.5,2.4-0.1c0.5,0.3,1.1,0.7,1.6,1
	c1.1,0.6,2.2,1.1,3.3,1.6c2.3,0.9,4.7,1.5,7.2,1.7c5,0.4,10-0.5,14.5-2.8c4.5-2.3,8.3-5.8,10.9-10.1c2.6-4.4,4-9.4,3.9-14.5
	c-0.1-5.2-1.9-10.2-5-14.3c-3.2-4.2-7.4-7.5-12.2-9.7c-4.9-2.3-10.3-3-15.6-2.2c-2.7,0.5-5.2,1.3-7.7,2.4
	C80.1,636.8,77.8,638.2,75.7,640z"/>
<path class="st3" d="M396.6,101.1V99h3.1c0.6,0,1-0.4,1-1v-6.2c0-0.6-0.4-1-1-1h-3.1v-2.1c0-1.2-0.9-2.1-2.1-2.1h-24.9
	c-0.6,0-1.1,0.2-1.5,0.6c-0.4,0.4-0.6,0.9-0.6,1.5v12.4c0,0.6,0.2,1.1,0.6,1.5c0.4,0.4,0.9,0.6,1.5,0.6h24.9
	C395.6,103.2,396.6,102.3,396.6,101.1 M371.1,94.9h8.2v-5.4l13.6,5.4h-8.2v5.4L371.1,94.9"/>
</svg>
