<?xml version="1.0" encoding="utf-8"?>
<!-- Generator: Adobe Illustrator 25.2.3, SVG Export Plug-In . SVG Version: 6.00 Build 0)  -->
<svg version="1.1" id="Lag_1" xmlns="http://www.w3.org/2000/svg" xmlns:xlink="http://www.w3.org/1999/xlink" x="0px" y="0px"
	 viewBox="0 0 1671.2 850" style="enable-background:new 0 0 1671.2 850;" xml:space="preserve">
<style type="text/css">
	.st0{fill:none;stroke:#FF0000;stroke-width:0.2835;stroke-linecap:round;stroke-miterlimit:11.3386;}
	.st1{fill:none;stroke:#0000FF;stroke-width:0.2835;stroke-linecap:round;stroke-miterlimit:11.3386;}
	.st2{fill:none;stroke:#0000FF;stroke-width:0.28;stroke-linecap:round;stroke-miterlimit:11.34;}
	.st3{stroke:#000000;stroke-width:0.75;stroke-miterlimit:10;}
</style>
<path id="TOP_outsideCutPath" vector-effect="non-scaling-stroke" class="st0" d="M361,692v-39.9h11.3v-22.7H361v-22.7h11.3v-22.7
	H361v-22.7h11.3v-22.7H361v-22.7h11.3v-22.7H361v-22.7h11.3v-22.7H361v-22.7h11.3v-22.7H361V380h11.3v-22.7H361v-22.7v-17.2
	l-0.3-7.1l-0.8-7l-1.3-7l-1.8-6.9l-2.2-6.7l-2.7-6.5l-3.2-6.3l-3.6-6.1l-4-5.8l-4.4-5.5l-4.8-5.2l-5.2-4.8l-5.5-4.4l-5.8-4l-6.1-3.6
	l-6.3-3.2l-6.5-2.7l-6.7-2.2l-6.9-1.7l-7-1.3l-7-0.8l-7-0.2h-18v-11.3h-22.7v11.3h-22.7v-11.3h-22.7v11.3h-22.7v-11.3h-22.7v11.3
	h-18l-7.1,0.3l-7,0.8l-7,1.3l-6.9,1.8l-6.7,2.2l-6.5,2.7l-6.3,3.2l-6.1,3.6l-5.8,4l-5.5,4.4l-5.2,4.8l-4.8,5.2l-4.4,5.5l-4,5.8
	l-3.6,6.1l-3.2,6.3l-2.7,6.5l-2.2,6.7l-1.7,6.9l-1.3,7l-0.8,7l-0.2,7v36.9H1.8v22.7h11.3v22.7H1.8v22.7h11.3v22.7H1.8v22.7h11.3
	v22.7v14.3v36.9H1.8v22.7h11.3v22.7H1.8v22.7h11.3v22.7H1.8v22.7h11.3v22.7V692l0.3,7.1l0.8,7l1.3,7l1.8,6.9l2.2,6.7l2.7,6.5
	l3.2,6.3l3.6,6.1l4,5.8l4.4,5.5l4.8,5.2l5.2,4.8l5.5,4.4l5.8,4l6.1,3.6l6.3,3.2l6.5,2.7l6.7,2.2l6.9,1.7l7,1.3l7,0.8l7,0.2h18v11.3
	h22.7v-11.3h22.7v11.3h22.7v-11.3h22.7v11.3h22.7v-11.3h18l7.1-0.3l7-0.8l7-1.3l6.9-1.8l6.7-2.2l6.5-2.7l6.3-3.2l6.1-3.6l5.8-4
	l5.5-4.4l5.2-4.8l4.8-5.2l4.4-5.5l4-5.8l3.6-6.1l3.2-6.3l2.7-6.5l2.2-6.7l1.7-6.9l1.3-7l0.8-7L361,692z"/>
<path id="BOTTOM_outsideCutPath" vector-effect="non-scaling-stroke" class="st0" d="M740,692v-39.9h11.3v-22.7H740v-22.7h11.3
	v-22.7H740v-22.7h11.3v-22.7H740v-22.7h11.3v-22.7H740v-22.7h11.3v-22.7H740v-22.7h11.3v-22.7H740V380h11.3v-22.7H740v-22.7v-17.2
	l-0.3-7.1l-0.8-7l-1.3-7l-1.8-6.9l-2.2-6.7l-2.7-6.5l-3.2-6.3l-3.6-6.1l-4-5.8l-4.4-5.5l-4.8-5.2l-5.2-4.8l-5.5-4.4l-5.8-4l-6.1-3.6
	l-6.3-3.2l-6.5-2.7l-6.7-2.2l-6.9-1.7l-7-1.3l-7-0.8l-7-0.2h-18v-11.3h-22.7v11.3h-22.7v-11.3h-22.7v11.3H532v-11.3h-22.7v11.3h-18
	l-7.1,0.3l-7,0.8l-7,1.3l-6.9,1.8l-6.7,2.2l-6.5,2.7l-6.3,3.2l-6.1,3.6l-5.8,4l-5.5,4.4l-5.2,4.8l-4.8,5.2l-4.4,5.5l-4,5.8l-3.6,6.1
	l-3.2,6.3l-2.7,6.5l-2.2,6.7l-1.7,6.9l-1.3,7l-0.8,7l-0.2,7v36.9h-11.3v22.7h11.3v22.7h-11.3v22.7h11.3v22.7h-11.3v22.7h11.3v22.7
	v14.3v36.9h-11.3v22.7h11.3v22.7h-11.3v22.7h11.3v22.7h-11.3v22.7h11.3v22.7V692l0.3,7.1l0.8,7l1.3,7l1.8,6.9l2.2,6.7l2.7,6.5
	l3.2,6.3l3.6,6.1l4,5.8l4.4,5.5l4.8,5.2l5.2,4.8l5.5,4.4l5.8,4l6.1,3.6l6.3,3.2l6.5,2.7l6.7,2.2l6.9,1.7l7,1.3l7,0.8l7,0.2h18v11.3
	H532v-11.3h22.7v11.3h22.7v-11.3h22.7v11.3h22.7v-11.3h18l7.1-0.3l7-0.8l7-1.3l6.9-1.8l6.7-2.2l6.5-2.7l6.3-3.2l6.1-3.6l5.8-4
	l5.5-4.4l5.2-4.8l4.8-5.2l4.4-5.5l4-5.8l3.6-6.1l3.2-6.3l2.7-6.5l2.2-6.7l1.7-6.9l1.3-7l0.8-7L740,692z"/>
<g>
	<line class="st1" x1="187.3" y1="-39.5" x2="187.3" y2="-89.1"/>
	<line class="st1" x1="187.3" y1="-113.9" x2="187.3" y2="-163.5"/>
	<line class="st1" x1="187.3" y1="-188.4" x2="187.3" y2="-238"/>
	<line class="st1" x1="199.3" y1="-39.5" x2="199.3" y2="-51.9"/>
	<line class="st1" x1="199.3" y1="-76.7" x2="199.3" y2="-126.3"/>
	<line class="st1" x1="199.3" y1="-151.1" x2="199.3" y2="-200.8"/>
	<line class="st1" x1="199.3" y1="-225.6" x2="199.3" y2="-238"/>
	<line class="st1" x1="211.4" y1="-39.5" x2="211.4" y2="-89.1"/>
	<line class="st1" x1="211.4" y1="-113.9" x2="211.4" y2="-163.5"/>
	<line class="st1" x1="211.4" y1="-188.4" x2="211.4" y2="-238"/>
	<line class="st1" x1="223.4" y1="-39.5" x2="223.4" y2="-51.9"/>
	<line class="st1" x1="223.4" y1="-76.7" x2="223.4" y2="-126.3"/>
	<line class="st1" x1="223.4" y1="-151.1" x2="223.4" y2="-200.8"/>
	<line class="st1" x1="223.4" y1="-225.6" x2="223.4" y2="-238"/>
	<line class="st1" x1="235.4" y1="-39.5" x2="235.4" y2="-89.1"/>
	<line class="st1" x1="235.4" y1="-113.9" x2="235.4" y2="-163.5"/>
	<line class="st1" x1="235.4" y1="-188.4" x2="235.4" y2="-238"/>
	<line class="st1" x1="247.5" y1="-39.5" x2="247.5" y2="-51.9"/>
	<line class="st1" x1="247.5" y1="-76.7" x2="247.5" y2="-126.3"/>
	<line class="st1" x1="247.5" y1="-151.1" x2="247.5" y2="-200.8"/>
	<line class="st1" x1="247.5" y1="-225.6" x2="247.5" y2="-238"/>
	<line class="st1" x1="259.5" y1="-39.5" x2="259.5" y2="-89.1"/>
	<line class="st1" x1="259.5" y1="-113.9" x2="259.5" y2="-163.5"/>
	<line class="st1" x1="259.5" y1="-188.4" x2="259.5" y2="-238"/>
	<line class="st1" x1="271.6" y1="-39.5" x2="271.6" y2="-51.9"/>
	<line class="st1" x1="271.6" y1="-76.7" x2="271.6" y2="-126.3"/>
	<line class="st1" x1="271.6" y1="-151.1" x2="271.6" y2="-200.8"/>
	<line class="st1" x1="271.6" y1="-225.6" x2="271.6" y2="-238"/>
	<line class="st1" x1="283.6" y1="-39.5" x2="283.6" y2="-89.1"/>
	<line class="st1" x1="283.6" y1="-113.9" x2="283.6" y2="-163.5"/>
	<line class="st1" x1="283.6" y1="-188.4" x2="283.6" y2="-238"/>
	<line class="st1" x1="295.7" y1="-39.5" x2="295.7" y2="-51.9"/>
	<line class="st1" x1="295.7" y1="-76.7" x2="295.7" y2="-126.3"/>
	<line class="st1" x1="295.7" y1="-151.1" x2="295.7" y2="-200.8"/>
	<line class="st1" x1="295.7" y1="-225.6" x2="295.7" y2="-238"/>
	<line class="st1" x1="307.7" y1="-39.5" x2="307.7" y2="-89.1"/>
	<line class="st1" x1="307.7" y1="-113.9" x2="307.7" y2="-163.5"/>
	<line class="st1" x1="307.7" y1="-188.4" x2="307.7" y2="-238"/>
	<line class="st1" x1="319.7" y1="-39.5" x2="319.7" y2="-51.9"/>
	<line class="st1" x1="319.7" y1="-76.7" x2="319.7" y2="-126.3"/>
	<line class="st1" x1="319.7" y1="-151.1" x2="319.7" y2="-200.8"/>
	<line class="st1" x1="319.7" y1="-225.6" x2="319.7" y2="-238"/>
	<line class="st1" x1="331.8" y1="-39.5" x2="331.8" y2="-89.1"/>
	<line class="st1" x1="331.8" y1="-113.9" x2="331.8" y2="-163.5"/>
	<line class="st1" x1="331.8" y1="-188.4" x2="331.8" y2="-238"/>
</g>
<g>
	<line class="st1" x1="492.5" y1="-39.5" x2="492.5" y2="-89.1"/>
	<line class="st1" x1="492.5" y1="-113.9" x2="492.5" y2="-163.5"/>
	<line class="st1" x1="492.5" y1="-188.4" x2="492.5" y2="-238"/>
	<line class="st1" x1="504.5" y1="-39.5" x2="504.5" y2="-51.9"/>
	<line class="st1" x1="504.5" y1="-76.7" x2="504.5" y2="-126.3"/>
	<line class="st1" x1="504.5" y1="-151.1" x2="504.5" y2="-200.8"/>
	<line class="st1" x1="504.5" y1="-225.6" x2="504.5" y2="-238"/>
	<line class="st1" x1="516.6" y1="-39.5" x2="516.6" y2="-89.1"/>
	<line class="st1" x1="516.6" y1="-113.9" x2="516.6" y2="-163.5"/>
	<line class="st1" x1="516.6" y1="-188.4" x2="516.6" y2="-238"/>
	<line class="st1" x1="528.6" y1="-39.5" x2="528.6" y2="-51.9"/>
	<line class="st1" x1="528.6" y1="-76.7" x2="528.6" y2="-126.3"/>
	<line class="st1" x1="528.6" y1="-151.1" x2="528.6" y2="-200.8"/>
	<line class="st1" x1="528.6" y1="-225.6" x2="528.6" y2="-238"/>
	<line class="st1" x1="540.7" y1="-39.5" x2="540.7" y2="-89.1"/>
	<line class="st1" x1="540.7" y1="-113.9" x2="540.7" y2="-163.5"/>
	<line class="st1" x1="540.7" y1="-188.4" x2="540.7" y2="-238"/>
	<line class="st1" x1="552.7" y1="-39.5" x2="552.7" y2="-51.9"/>
	<line class="st1" x1="552.7" y1="-76.7" x2="552.7" y2="-126.3"/>
	<line class="st1" x1="552.7" y1="-151.1" x2="552.7" y2="-200.8"/>
	<line class="st1" x1="552.7" y1="-225.6" x2="552.7" y2="-238"/>
	<line class="st1" x1="564.8" y1="-39.5" x2="564.8" y2="-89.1"/>
	<line class="st1" x1="564.8" y1="-113.9" x2="564.8" y2="-163.5"/>
	<line class="st1" x1="564.8" y1="-188.4" x2="564.8" y2="-238"/>
	<line class="st1" x1="576.8" y1="-39.5" x2="576.8" y2="-51.9"/>
	<line class="st1" x1="576.8" y1="-76.7" x2="576.8" y2="-126.3"/>
	<line class="st1" x1="576.8" y1="-151.1" x2="576.8" y2="-200.8"/>
	<line class="st1" x1="576.8" y1="-225.6" x2="576.8" y2="-238"/>
	<line class="st1" x1="588.8" y1="-39.5" x2="588.8" y2="-89.1"/>
	<line class="st1" x1="588.8" y1="-113.9" x2="588.8" y2="-163.5"/>
	<line class="st1" x1="588.8" y1="-188.4" x2="588.8" y2="-238"/>
	<line class="st1" x1="600.9" y1="-39.5" x2="600.9" y2="-51.9"/>
	<line class="st1" x1="600.9" y1="-76.7" x2="600.9" y2="-126.3"/>
	<line class="st1" x1="600.9" y1="-151.1" x2="600.9" y2="-200.8"/>
	<line class="st1" x1="600.9" y1="-225.6" x2="600.9" y2="-238"/>
	<line class="st1" x1="612.9" y1="-39.5" x2="612.9" y2="-89.1"/>
	<line class="st1" x1="612.9" y1="-113.9" x2="612.9" y2="-163.5"/>
	<line class="st1" x1="612.9" y1="-188.4" x2="612.9" y2="-238"/>
	<line class="st1" x1="625" y1="-39.5" x2="625" y2="-51.9"/>
	<line class="st1" x1="625" y1="-76.7" x2="625" y2="-126.3"/>
	<line class="st1" x1="625" y1="-151.1" x2="625" y2="-200.8"/>
	<line class="st1" x1="625" y1="-225.6" x2="625" y2="-238"/>
	<line class="st1" x1="637" y1="-39.5" x2="637" y2="-89.1"/>
	<line class="st1" x1="637" y1="-113.9" x2="637" y2="-163.5"/>
	<line class="st1" x1="637" y1="-188.4" x2="637" y2="-238"/>
</g>
<g>
	<line class="st1" x1="1022.9" y1="-39.5" x2="1022.9" y2="-89.1"/>
	<line class="st1" x1="1022.9" y1="-113.9" x2="1022.9" y2="-163.5"/>
	<line class="st1" x1="1022.9" y1="-188.4" x2="1022.9" y2="-238"/>
	<line class="st1" x1="1034.9" y1="-39.5" x2="1034.9" y2="-51.9"/>
	<line class="st1" x1="1034.9" y1="-76.7" x2="1034.9" y2="-126.3"/>
	<line class="st1" x1="1034.9" y1="-151.1" x2="1034.9" y2="-200.8"/>
	<line class="st1" x1="1034.9" y1="-225.6" x2="1034.9" y2="-238"/>
	<line class="st1" x1="1047" y1="-39.5" x2="1047" y2="-89.1"/>
	<line class="st1" x1="1047" y1="-113.9" x2="1047" y2="-163.5"/>
	<line class="st1" x1="1047" y1="-188.4" x2="1047" y2="-238"/>
	<line class="st1" x1="1059" y1="-39.5" x2="1059" y2="-51.9"/>
	<line class="st1" x1="1059" y1="-76.7" x2="1059" y2="-126.3"/>
	<line class="st1" x1="1059" y1="-151.1" x2="1059" y2="-200.8"/>
	<line class="st1" x1="1059" y1="-225.6" x2="1059" y2="-238"/>
	<line class="st1" x1="1071.1" y1="-39.5" x2="1071.1" y2="-89.1"/>
	<line class="st1" x1="1071.1" y1="-113.9" x2="1071.1" y2="-163.5"/>
	<line class="st1" x1="1071.1" y1="-188.4" x2="1071.1" y2="-238"/>
	<line class="st1" x1="1083.1" y1="-39.5" x2="1083.1" y2="-51.9"/>
	<line class="st1" x1="1083.1" y1="-76.7" x2="1083.1" y2="-126.3"/>
	<line class="st1" x1="1083.1" y1="-151.1" x2="1083.1" y2="-200.8"/>
	<line class="st1" x1="1083.1" y1="-225.6" x2="1083.1" y2="-238"/>
	<line class="st1" x1="1095.1" y1="-39.5" x2="1095.1" y2="-89.1"/>
	<line class="st1" x1="1095.1" y1="-113.9" x2="1095.1" y2="-163.5"/>
	<line class="st1" x1="1095.1" y1="-188.4" x2="1095.1" y2="-238"/>
	<line class="st1" x1="1107.2" y1="-39.5" x2="1107.2" y2="-51.9"/>
	<line class="st1" x1="1107.2" y1="-76.7" x2="1107.2" y2="-126.3"/>
	<line class="st1" x1="1107.2" y1="-151.1" x2="1107.2" y2="-200.8"/>
	<line class="st1" x1="1107.2" y1="-225.6" x2="1107.2" y2="-238"/>
	<line class="st1" x1="1119.2" y1="-39.5" x2="1119.2" y2="-89.1"/>
	<line class="st1" x1="1119.2" y1="-113.9" x2="1119.2" y2="-163.5"/>
	<line class="st1" x1="1119.2" y1="-188.4" x2="1119.2" y2="-238"/>
	<line class="st1" x1="1131.3" y1="-39.5" x2="1131.3" y2="-51.9"/>
	<line class="st1" x1="1131.3" y1="-76.7" x2="1131.3" y2="-126.3"/>
	<line class="st1" x1="1131.3" y1="-151.1" x2="1131.3" y2="-200.8"/>
	<line class="st1" x1="1131.3" y1="-225.6" x2="1131.3" y2="-238"/>
	<line class="st1" x1="1143.3" y1="-39.5" x2="1143.3" y2="-89.1"/>
	<line class="st1" x1="1143.3" y1="-113.9" x2="1143.3" y2="-163.5"/>
	<line class="st1" x1="1143.3" y1="-188.4" x2="1143.3" y2="-238"/>
	<line class="st1" x1="1155.4" y1="-39.5" x2="1155.4" y2="-51.9"/>
	<line class="st1" x1="1155.4" y1="-76.7" x2="1155.4" y2="-126.3"/>
	<line class="st1" x1="1155.4" y1="-151.1" x2="1155.4" y2="-200.8"/>
	<line class="st1" x1="1155.4" y1="-225.6" x2="1155.4" y2="-238"/>
	<line class="st1" x1="1167.4" y1="-39.5" x2="1167.4" y2="-89.1"/>
	<line class="st1" x1="1167.4" y1="-113.9" x2="1167.4" y2="-163.5"/>
	<line class="st1" x1="1167.4" y1="-188.4" x2="1167.4" y2="-238"/>
</g>
<g>
	<line class="st1" x1="1328.1" y1="-39.5" x2="1328.1" y2="-89.1"/>
	<line class="st1" x1="1328.1" y1="-113.9" x2="1328.1" y2="-163.5"/>
	<line class="st1" x1="1328.1" y1="-188.4" x2="1328.1" y2="-238"/>
	<line class="st1" x1="1340.2" y1="-39.5" x2="1340.2" y2="-51.9"/>
	<line class="st1" x1="1340.2" y1="-76.7" x2="1340.2" y2="-126.3"/>
	<line class="st1" x1="1340.2" y1="-151.1" x2="1340.2" y2="-200.8"/>
	<line class="st1" x1="1340.2" y1="-225.6" x2="1340.2" y2="-238"/>
	<line class="st1" x1="1352.2" y1="-39.5" x2="1352.2" y2="-89.1"/>
	<line class="st1" x1="1352.2" y1="-113.9" x2="1352.2" y2="-163.5"/>
	<line class="st1" x1="1352.2" y1="-188.4" x2="1352.2" y2="-238"/>
	<line class="st1" x1="1364.2" y1="-39.5" x2="1364.2" y2="-51.9"/>
	<line class="st1" x1="1364.2" y1="-76.7" x2="1364.2" y2="-126.3"/>
	<line class="st1" x1="1364.2" y1="-151.1" x2="1364.2" y2="-200.8"/>
	<line class="st1" x1="1364.2" y1="-225.6" x2="1364.2" y2="-238"/>
	<line class="st1" x1="1376.3" y1="-39.5" x2="1376.3" y2="-89.1"/>
	<line class="st1" x1="1376.3" y1="-113.9" x2="1376.3" y2="-163.5"/>
	<line class="st1" x1="1376.3" y1="-188.4" x2="1376.3" y2="-238"/>
	<line class="st1" x1="1388.3" y1="-39.5" x2="1388.3" y2="-51.9"/>
	<line class="st1" x1="1388.3" y1="-76.7" x2="1388.3" y2="-126.3"/>
	<line class="st1" x1="1388.3" y1="-151.1" x2="1388.3" y2="-200.8"/>
	<line class="st1" x1="1388.3" y1="-225.6" x2="1388.3" y2="-238"/>
	<line class="st1" x1="1400.4" y1="-39.5" x2="1400.4" y2="-89.1"/>
	<line class="st1" x1="1400.4" y1="-113.9" x2="1400.4" y2="-163.5"/>
	<line class="st1" x1="1400.4" y1="-188.4" x2="1400.4" y2="-238"/>
	<line class="st1" x1="1412.4" y1="-39.5" x2="1412.4" y2="-51.9"/>
	<line class="st1" x1="1412.4" y1="-76.7" x2="1412.4" y2="-126.3"/>
	<line class="st1" x1="1412.4" y1="-151.1" x2="1412.4" y2="-200.8"/>
	<line class="st1" x1="1412.4" y1="-225.6" x2="1412.4" y2="-238"/>
	<line class="st1" x1="1424.5" y1="-39.5" x2="1424.5" y2="-89.1"/>
	<line class="st1" x1="1424.5" y1="-113.9" x2="1424.5" y2="-163.5"/>
	<line class="st1" x1="1424.5" y1="-188.4" x2="1424.5" y2="-238"/>
	<line class="st1" x1="1436.5" y1="-39.5" x2="1436.5" y2="-51.9"/>
	<line class="st1" x1="1436.5" y1="-76.7" x2="1436.5" y2="-126.3"/>
	<line class="st1" x1="1436.5" y1="-151.1" x2="1436.5" y2="-200.8"/>
	<line class="st1" x1="1436.5" y1="-225.6" x2="1436.5" y2="-238"/>
	<line class="st1" x1="1448.5" y1="-39.5" x2="1448.5" y2="-89.1"/>
	<line class="st1" x1="1448.5" y1="-113.9" x2="1448.5" y2="-163.5"/>
	<line class="st1" x1="1448.5" y1="-188.4" x2="1448.5" y2="-238"/>
	<line class="st1" x1="1460.6" y1="-39.5" x2="1460.6" y2="-51.9"/>
	<line class="st1" x1="1460.6" y1="-76.7" x2="1460.6" y2="-126.3"/>
	<line class="st1" x1="1460.6" y1="-151.1" x2="1460.6" y2="-200.8"/>
	<line class="st1" x1="1460.6" y1="-225.6" x2="1460.6" y2="-238"/>
	<line class="st1" x1="1472.6" y1="-39.5" x2="1472.6" y2="-89.1"/>
	<line class="st1" x1="1472.6" y1="-113.9" x2="1472.6" y2="-163.5"/>
	<line class="st1" x1="1472.6" y1="-188.4" x2="1472.6" y2="-238"/>
</g>
<path id="SIDE_outsideCutPath" vector-effect="non-scaling-stroke" class="st0" d="M0,0v198.4h36.9v-11.3h22.7v11.3h22.7v-11.3H105
	v11.3h22.7v-11.3h22.7v11.3H173h14.3h155.8h18v-11.3h22.7v11.3h22.7v-11.3h22.7v11.3h22.7v-11.3h22.7v11.3h18h155.8h39.9v-11.3h22.7
	v11.3h22.7v-11.3h22.7v11.3h22.7v-11.3h22.7v11.3h22.7v-11.3H847v11.3h22.7v-11.3h22.7v11.3H915v-11.3h22.7v11.3h22.7v-11.3H983
	v11.3h22.7h17.2h155.8h18v-11.3h22.7v11.3h22.7v-11.3h22.7v11.3h22.7v-11.3h22.7v11.3h18H1484h36.9v-11.3h22.7v11.3h22.7v-11.3h22.7
	v11.3h22.7v-11.3h22.7v11.3h22.7h14.3V0h-36.9v11.3h-22.7V0h-22.7v11.3h-22.7V0h-22.7v11.3h-22.7V0h-22.7H1484h-155.8h-18v11.3
	h-22.7V0h-22.7v11.3h-22.7V0h-22.7v11.3h-22.7V0h-18h-155.8H983v11.3h-22.7V0h-22.7v11.3H915V0h-22.7v11.3h-22.7V0H847v11.3h-22.7V0
	h-22.7v11.3h-22.7V0h-22.7v11.3h-22.7V0h-22.7v11.3h-22.7V0h-22.7h-17.2H492.5h-18v11.3h-22.7V0h-22.7v11.3h-22.7V0h-22.7v11.3
	h-22.7V0h-18H187.3h-36.9v11.3h-22.7V0H105v11.3H82.3V0H59.6v11.3H36.9V0H14.3H0z"/>
<rect x="682.6" y="49.6" class="st2" width="306.1" height="99.2"/>
<g>
	<circle class="st2" cx="187.1" cy="353.5" r="106.3"/>
	<g>
		<rect x="137.5" y="485.3" class="st2" width="155.9" height="243.8"/>
		<g>
			<circle class="st2" cx="94.1" cy="553.8" r="11.1"/>
			<g>
				<g>
					<path d="M66.5,555.5c0.5-1.2,0.2-2.4-0.6-3.3c0,0,0,0-0.1-0.1l-6.7-5.8v-1.8c0-2.2-1.8-4.1-4.1-4.1h-2.6
						c-2.2,0-4.1,1.8-4.1,4.1v1.8l-6.7,5.8c0,0,0,0-0.1,0.1c-0.6,0.6-0.9,1.4-0.9,2.1c0,0.4,0.1,0.8,0.2,1.2
						c0.5,1.2,1.6,1.9,2.8,1.9c0.6,0,1-0.5,1-1c0-0.6-0.5-1-1-1c-0.6,0-0.9-0.5-0.9-0.6c-0.1-0.1-0.2-0.6,0.2-1.1l7-6
						c0.2-0.2,0.4-0.5,0.4-0.8v-2.3c0-1.1,0.9-2,2-2h2.6c1.1,0,2,0.9,2,2v2.3c0,0.3,0.1,0.6,0.4,0.8l7,6c0.4,0.4,0.2,0.9,0.2,1.1
						c-0.1,0.1-0.3,0.6-0.9,0.6H48.8c-0.6,0-1,0.5-1,1c0,0.6,0.5,1,1,1h14.8C64.9,557.3,66,556.6,66.5,555.5z"/>
				</g>
				<g>
					<path d="M50.8,561.6L50.8,561.6c0.5,0.3,1.4,0.8,2.9,0.8s2.5-0.5,2.9-0.8c0.5-0.3,0.7-0.9,0.4-1.4s-0.9-0.7-1.4-0.4
						c-0.4,0.2-0.9,0.5-1.9,0.5s-1.5-0.3-1.9-0.5l0,0c-0.5-0.3-1.1-0.1-1.4,0.4c-0.1,0.2-0.1,0.3-0.1,0.5
						C50.2,561.1,50.4,561.4,50.8,561.6z"/>
				</g>
				<g>
					<path d="M61.7,563.1c0.4-0.4,0.4-1,0-1.4s-1-0.4-1.4,0c-1.8,1.8-4.1,2.8-6.6,2.8s-4.8-1-6.6-2.8c-0.4-0.4-1-0.4-1.4,0
						c-0.2,0.2-0.3,0.5-0.3,0.7c0,0.3,0.1,0.5,0.3,0.7c2.1,2.2,5,3.4,8,3.4C56.7,566.5,59.6,565.3,61.7,563.1z"/>
				</g>
				<g>
					<path d="M73.6,533.3c4-3.8,9-6.5,14.4-7.8c2.7-0.6,5.6-0.9,8.4-0.6c2.8,0.2,5.6,0.9,8.3,1.9c5.3,2,10.2,5.3,13.8,9.8
						c3.7,4.5,6,10.1,6.4,16s-0.9,11.8-3.8,17s-7.2,9.5-12.5,12.4c-5.2,2.9-11.3,4.2-17.3,3.8c-3-0.2-6-0.8-8.8-1.8
						c-1.4-0.5-2.8-1.1-4.1-1.9c-0.7-0.4-1.3-0.7-1.9-1.1c-0.6-0.5-1.1-1.1-1-2.4c0.1-1.1,0.7-2,1.6-2.4l0.1-0.1
						c1.2-0.5,1.8-0.4,2.4-0.1c0.5,0.3,1.1,0.7,1.6,1c1.1,0.6,2.2,1.2,3.3,1.6c2.3,0.9,4.7,1.5,7.2,1.7c5,0.4,10-0.5,14.5-2.8
						c4.5-2.2,8.3-5.8,10.9-10.1s4-9.4,3.9-14.5s-1.9-10.1-5-14.3s-7.4-7.5-12.2-9.7c-4.8-2.2-10.3-3.1-15.6-2.2
						c-2.6,0.4-5.2,1.3-7.7,2.4C78.1,530.2,75.7,531.6,73.6,533.3z"/>
				</g>
			</g>
			<g>
				<path class="st3" d="M61.8,660.3c0,0.3,0.2,0.5,0.5,0.5h4.3c0.3,0,0.5-0.2,0.5-0.5s-0.2-0.5-0.5-0.5h-4.3
					C62,659.8,61.8,660,61.8,660.3z"/>
				<path class="st3" d="M59.6,654.2c-0.1,0.1-0.2,0.2-0.2,0.4c0,0.1,0,0.3,0.2,0.4c0.2,0.2,0.5,0.2,0.7,0l3-3.1
					c0.2-0.2,0.2-0.5,0-0.7s-0.5-0.2-0.7,0L59.6,654.2z"/>
				<path class="st3" d="M48.9,666.4c0.2-0.2,0.2-0.5,0-0.7s-0.5-0.2-0.7,0l-3.1,3.1c-0.1,0.1-0.2,0.2-0.2,0.4c0,0.1,0,0.3,0.2,0.4
					c0.2,0.2,0.5,0.2,0.7,0L48.9,666.4z"/>
				<path class="st3" d="M54.3,652.8c0.3,0,0.5-0.2,0.5-0.5v-4.4c0-0.3-0.2-0.5-0.5-0.5s-0.5,0.2-0.5,0.5v4.3
					C53.7,652.5,54,652.8,54.3,652.8z"/>
				<path class="st3" d="M54.8,672.7v-4.3c0-0.3-0.2-0.5-0.5-0.5s-0.5,0.2-0.5,0.5v4.3c0,0.3,0.2,0.5,0.5,0.5
					C54.5,673.2,54.8,673,54.8,672.7z"/>
				<path class="st3" d="M48.9,654.2l-3.1-3.1c-0.2-0.2-0.5-0.2-0.7,0c-0.1,0.1-0.2,0.2-0.2,0.4c0,0.1,0,0.3,0.2,0.4l3.1,3.1
					c0.2,0.2,0.5,0.2,0.7,0C49.1,654.8,49.1,654.4,48.9,654.2z"/>
				<path class="st3" d="M59.4,666c0,0.1,0,0.3,0.2,0.4l3.1,3.1c0.2,0.2,0.5,0.2,0.7,0s0.2-0.5,0-0.7l-3.1-3.1
					c-0.2-0.2-0.5-0.2-0.7,0C59.5,665.7,59.4,665.9,59.4,666z"/>
				<path class="st3" d="M58.9,664.8c1.2-1.2,1.9-2.9,1.8-4.6c0-1.7-0.7-3.2-1.8-4.4c-1.2-1.2-2.7-1.9-4.4-1.9
					c-2.2-0.1-4.2,0.9-5.5,2.7c-0.4,0.6-1.1,0.9-1.8,0.9h-0.4c-1,0-1.8,0.8-1.8,1.8l0,0v2.4c0,0.2-0.2,0.4-0.4,0.4
					c-0.2,0-0.5-0.2-0.5-0.4v-2.8l0,0c0-0.8-0.8-1.4-1.5-1.4c-0.8,0-1.4,0.6-1.4,1.4v0.2c0,0.3-0.3,0.6-0.6,0.6s-0.4,0.2-0.4,0.5
					s0.1,0.5,0.4,0.5c0.9,0,1.7-0.8,1.7-1.7v-0.1c0-0.2,0.2-0.4,0.4-0.4c0.2,0,0.5,0.2,0.5,0.4v2.7l0,0c0,0.8,0.7,1.4,1.5,1.4
					s1.4-0.6,1.4-1.4v-2.4c0-0.4,0.3-0.8,0.8-0.8h0.4c1,0,2-0.5,2.6-1.4c1.1-1.5,2.8-2.3,4.6-2.2c2.9,0.1,5.2,2.5,5.2,5.4
					c0,1.5-0.5,2.9-1.6,3.9c-1,1.1-2.4,1.6-3.9,1.6c-1.7,0-3.4-0.8-4.4-2.2c-0.6-0.9-1.6-1.4-2.7-1.4c-0.3,0-0.5,0.2-0.5,0.5
					s0.2,0.5,0.5,0.5c0.7,0,1.4,0.4,1.8,0.9c1.2,1.7,3.2,2.7,5.2,2.7C56,666.8,57.6,666.1,58.9,664.8z"/>
			</g>
			<g>
				<path d="M73.6,640c4-3.8,9-6.5,14.4-7.8c2.7-0.6,5.6-0.9,8.4-0.6c2.8,0.2,5.6,0.9,8.3,1.9c5.3,2,10.2,5.3,13.8,9.8
					c3.7,4.5,6,10.1,6.4,16s-0.9,11.8-3.8,17s-7.2,9.5-12.5,12.4c-5.2,2.9-11.3,4.2-17.3,3.8c-3-0.2-6-0.8-8.8-1.8
					c-1.4-0.5-2.8-1.1-4.1-1.9c-0.7-0.4-1.3-0.7-1.9-1.1c-0.6-0.5-1.1-1.1-1-2.4c0.1-1.1,0.7-2,1.6-2.4l0.1-0.1
					c1.2-0.5,1.8-0.4,2.4-0.1c0.5,0.3,1.1,0.7,1.6,1c1.1,0.6,2.2,1.2,3.3,1.6c2.3,0.9,4.7,1.5,7.2,1.7c5,0.4,10-0.5,14.5-2.8
					c4.5-2.2,8.3-5.8,10.9-10.1s4-9.4,3.9-14.5s-1.9-10.1-5-14.3s-7.4-7.5-12.2-9.7c-4.8-2.2-10.3-3.1-15.6-2.2
					c-2.6,0.4-5.2,1.3-7.7,2.4C78.1,636.8,75.7,638.2,73.6,640z"/>
			</g>
			<circle class="st2" cx="94.2" cy="660.2" r="11.1"/>
		</g>
	</g>
</g>
<circle class="st2" cx="456.8" cy="139" r="7.2"/>
<g>
	<path class="st2" d="M371.2,153.2v-35h17.6l2.8,2.7v28.6l-2.8,3.6C388.8,153.3,381.7,153.2,371.2,153.2z"/>
	<path d="M394.5,101.1V99h3.1c0.6,0,1-0.5,1-1v-6.2c0-0.6-0.5-1-1-1h-3.1v-2.1c0-1.1-0.9-2.1-2.1-2.1h-24.9c-1.2,0-2.1,0.9-2.1,2.1
		v12.4c0,1.2,0.9,2.1,2.1,2.1h24.9C393.6,103.2,394.5,102.2,394.5,101.1z M369,94.9h8.2v-5.4l13.6,5.4h-8.2v5.4L369,94.9z"/>
</g>
<circle class="st2" cx="1212.1" cy="139" r="7.2"/>
<circle class="st2" cx="1284.3" cy="139" r="14.2"/>
<g>
	<line class="st2" x1="488.9" y1="183.5" x2="488.9" y2="134.1"/>
	<line class="st2" x1="488.9" y1="134.1" x2="488.9" y2="65"/>
	<line class="st2" x1="488.9" y1="65" x2="488.9" y2="15.6"/>
	<line class="st2" x1="623.4" y1="183.5" x2="623.4" y2="134.1"/>
	<line class="st2" x1="623.4" y1="134.1" x2="623.4" y2="65"/>
	<line class="st2" x1="623.4" y1="65" x2="623.4" y2="15.6"/>
	<line class="st2" x1="498.5" y1="198.4" x2="498.5" y2="107.7"/>
	<line class="st2" x1="498.5" y1="94.6" x2="498.5" y2="0.7"/>
	<line class="st2" x1="508.1" y1="183.5" x2="508.1" y2="134.1"/>
	<line class="st2" x1="508.1" y1="134.1" x2="508.1" y2="65"/>
	<line class="st2" x1="508.1" y1="65" x2="508.1" y2="15.6"/>
	<line class="st2" x1="517.7" y1="198.4" x2="517.7" y2="107.7"/>
	<line class="st2" x1="517.7" y1="94.6" x2="517.7" y2="0.7"/>
	<line class="st2" x1="527.4" y1="183.5" x2="527.4" y2="134.1"/>
	<line class="st2" x1="527.4" y1="134.1" x2="527.4" y2="65"/>
	<line class="st2" x1="527.4" y1="65" x2="527.4" y2="15.6"/>
	<line class="st2" x1="536.9" y1="198.4" x2="536.9" y2="107.7"/>
	<line class="st2" x1="536.9" y1="94.6" x2="536.9" y2="0.7"/>
	<line class="st2" x1="546.6" y1="183.5" x2="546.6" y2="134.1"/>
	<line class="st2" x1="546.6" y1="134.1" x2="546.6" y2="65"/>
	<line class="st2" x1="546.6" y1="65" x2="546.6" y2="15.6"/>
	<line class="st2" x1="556.1" y1="198.4" x2="556.1" y2="107.7"/>
	<line class="st2" x1="556.1" y1="94.6" x2="556.1" y2="0.7"/>
	<line class="st2" x1="565.8" y1="183.5" x2="565.8" y2="134.1"/>
	<line class="st2" x1="565.8" y1="134.1" x2="565.8" y2="65"/>
	<line class="st2" x1="565.8" y1="65" x2="565.8" y2="15.6"/>
	<line class="st2" x1="575.3" y1="198.4" x2="575.3" y2="107.7"/>
	<line class="st2" x1="575.3" y1="94.6" x2="575.3" y2="0.7"/>
	<line class="st2" x1="585" y1="183.5" x2="585" y2="134.1"/>
	<line class="st2" x1="585" y1="134.1" x2="585" y2="65"/>
	<line class="st2" x1="585" y1="65" x2="585" y2="15.6"/>
	<line class="st2" x1="594.6" y1="198.4" x2="594.6" y2="107.7"/>
	<line class="st2" x1="594.6" y1="94.6" x2="594.6" y2="0.7"/>
	<line class="st2" x1="604.2" y1="183.5" x2="604.2" y2="134.1"/>
	<line class="st2" x1="604.2" y1="134.1" x2="604.2" y2="65"/>
	<line class="st2" x1="604.2" y1="65" x2="604.2" y2="15.6"/>
	<line class="st2" x1="613.8" y1="198.4" x2="613.8" y2="107.7"/>
	<line class="st2" x1="613.8" y1="94.6" x2="613.8" y2="0.7"/>
	<line class="st2" x1="640.6" y1="183.5" x2="640.6" y2="134.1"/>
	<line class="st2" x1="640.6" y1="134.1" x2="640.6" y2="65"/>
	<line class="st2" x1="640.6" y1="65" x2="640.6" y2="15.6"/>
	<line class="st2" x1="630.9" y1="198.4" x2="630.9" y2="107.7"/>
	<line class="st2" x1="630.9" y1="94.6" x2="630.9" y2="0.7"/>
</g>
<g>
	<line class="st2" x1="183.7" y1="183.5" x2="183.7" y2="134.1"/>
	<line class="st2" x1="183.7" y1="134.1" x2="183.7" y2="65"/>
	<line class="st2" x1="183.7" y1="65" x2="183.7" y2="15.6"/>
	<line class="st2" x1="318.2" y1="183.5" x2="318.2" y2="134.1"/>
	<line class="st2" x1="318.2" y1="134.1" x2="318.2" y2="65"/>
	<line class="st2" x1="318.2" y1="65" x2="318.2" y2="15.6"/>
	<line class="st2" x1="193.3" y1="198.4" x2="193.3" y2="107.7"/>
	<line class="st2" x1="193.3" y1="94.6" x2="193.3" y2="0.7"/>
	<line class="st2" x1="202.9" y1="183.5" x2="202.9" y2="134.1"/>
	<line class="st2" x1="202.9" y1="134.1" x2="202.9" y2="65"/>
	<line class="st2" x1="202.9" y1="65" x2="202.9" y2="15.6"/>
	<line class="st2" x1="212.5" y1="198.4" x2="212.5" y2="107.7"/>
	<line class="st2" x1="212.5" y1="94.6" x2="212.5" y2="0.7"/>
	<line class="st2" x1="222.1" y1="183.5" x2="222.1" y2="134.1"/>
	<line class="st2" x1="222.1" y1="134.1" x2="222.1" y2="65"/>
	<line class="st2" x1="222.1" y1="65" x2="222.1" y2="15.6"/>
	<line class="st2" x1="231.7" y1="198.4" x2="231.7" y2="107.7"/>
	<line class="st2" x1="231.7" y1="94.6" x2="231.7" y2="0.7"/>
	<line class="st2" x1="241.3" y1="183.5" x2="241.3" y2="134.1"/>
	<line class="st2" x1="241.3" y1="134.1" x2="241.3" y2="65"/>
	<line class="st2" x1="241.3" y1="65" x2="241.3" y2="15.6"/>
	<line class="st2" x1="250.9" y1="198.4" x2="250.9" y2="107.7"/>
	<line class="st2" x1="250.9" y1="94.6" x2="250.9" y2="0.7"/>
	<line class="st2" x1="260.6" y1="183.5" x2="260.6" y2="134.1"/>
	<line class="st2" x1="260.6" y1="134.1" x2="260.6" y2="65"/>
	<line class="st2" x1="260.6" y1="65" x2="260.6" y2="15.6"/>
	<line class="st2" x1="270.1" y1="198.4" x2="270.1" y2="107.7"/>
	<line class="st2" x1="270.1" y1="94.6" x2="270.1" y2="0.7"/>
	<line class="st2" x1="279.8" y1="183.5" x2="279.8" y2="134.1"/>
	<line class="st2" x1="279.8" y1="134.1" x2="279.8" y2="65"/>
	<line class="st2" x1="279.8" y1="65" x2="279.8" y2="15.6"/>
	<line class="st2" x1="289.3" y1="198.4" x2="289.3" y2="107.7"/>
	<line class="st2" x1="289.3" y1="94.6" x2="289.3" y2="0.7"/>
	<line class="st2" x1="299" y1="183.5" x2="299" y2="134.1"/>
	<line class="st2" x1="299" y1="134.1" x2="299" y2="65"/>
	<line class="st2" x1="299" y1="65" x2="299" y2="15.6"/>
	<line class="st2" x1="308.5" y1="198.4" x2="308.5" y2="107.7"/>
	<line class="st2" x1="308.5" y1="94.6" x2="308.5" y2="0.7"/>
	<line class="st2" x1="335.3" y1="183.5" x2="335.3" y2="134.1"/>
	<line class="st2" x1="335.3" y1="134.1" x2="335.3" y2="65"/>
	<line class="st2" x1="335.3" y1="65" x2="335.3" y2="15.6"/>
	<line class="st2" x1="325.7" y1="198.4" x2="325.7" y2="107.7"/>
	<line class="st2" x1="325.7" y1="94.6" x2="325.7" y2="0.7"/>
</g>
<g>
	<line class="st2" x1="1019.3" y1="183.5" x2="1019.3" y2="134.1"/>
	<line class="st2" x1="1019.3" y1="134.1" x2="1019.3" y2="65"/>
	<line class="st2" x1="1019.3" y1="65" x2="1019.3" y2="15.6"/>
	<line class="st2" x1="1153.8" y1="183.5" x2="1153.8" y2="134.1"/>
	<line class="st2" x1="1153.8" y1="134.1" x2="1153.8" y2="65"/>
	<line class="st2" x1="1153.8" y1="65" x2="1153.8" y2="15.6"/>
	<line class="st2" x1="1028.9" y1="198.4" x2="1028.9" y2="107.7"/>
	<line class="st2" x1="1028.9" y1="94.6" x2="1028.9" y2="0.7"/>
	<line class="st2" x1="1038.5" y1="183.5" x2="1038.5" y2="134.1"/>
	<line class="st2" x1="1038.5" y1="134.1" x2="1038.5" y2="65"/>
	<line class="st2" x1="1038.5" y1="65" x2="1038.5" y2="15.6"/>
	<line class="st2" x1="1048.1" y1="198.4" x2="1048.1" y2="107.7"/>
	<line class="st2" x1="1048.1" y1="94.6" x2="1048.1" y2="0.7"/>
	<line class="st2" x1="1057.8" y1="183.5" x2="1057.8" y2="134.1"/>
	<line class="st2" x1="1057.8" y1="134.1" x2="1057.8" y2="65"/>
	<line class="st2" x1="1057.8" y1="65" x2="1057.8" y2="15.6"/>
	<line class="st2" x1="1067.3" y1="198.4" x2="1067.3" y2="107.7"/>
	<line class="st2" x1="1067.3" y1="94.6" x2="1067.3" y2="0.7"/>
	<line class="st2" x1="1077" y1="183.5" x2="1077" y2="134.1"/>
	<line class="st2" x1="1077" y1="134.1" x2="1077" y2="65"/>
	<line class="st2" x1="1077" y1="65" x2="1077" y2="15.6"/>
	<line class="st2" x1="1086.5" y1="198.4" x2="1086.5" y2="107.7"/>
	<line class="st2" x1="1086.5" y1="94.6" x2="1086.5" y2="0.7"/>
	<line class="st2" x1="1096.2" y1="183.5" x2="1096.2" y2="134.1"/>
	<line class="st2" x1="1096.2" y1="134.1" x2="1096.2" y2="65"/>
	<line class="st2" x1="1096.2" y1="65" x2="1096.2" y2="15.6"/>
	<line class="st2" x1="1105.7" y1="198.4" x2="1105.7" y2="107.7"/>
	<line class="st2" x1="1105.7" y1="94.6" x2="1105.7" y2="0.7"/>
	<line class="st2" x1="1115.4" y1="183.5" x2="1115.4" y2="134.1"/>
	<line class="st2" x1="1115.4" y1="134.1" x2="1115.4" y2="65"/>
	<line class="st2" x1="1115.4" y1="65" x2="1115.4" y2="15.6"/>
	<line class="st2" x1="1124.9" y1="198.4" x2="1124.9" y2="107.7"/>
	<line class="st2" x1="1124.9" y1="94.6" x2="1124.9" y2="0.7"/>
	<line class="st2" x1="1134.6" y1="183.5" x2="1134.6" y2="134.1"/>
	<line class="st2" x1="1134.6" y1="134.1" x2="1134.6" y2="65"/>
	<line class="st2" x1="1134.6" y1="65" x2="1134.6" y2="15.6"/>
	<line class="st2" x1="1144.2" y1="198.4" x2="1144.2" y2="107.7"/>
	<line class="st2" x1="1144.2" y1="94.6" x2="1144.2" y2="0.7"/>
	<line class="st2" x1="1171" y1="183.5" x2="1171" y2="134.1"/>
	<line class="st2" x1="1171" y1="134.1" x2="1171" y2="65"/>
	<line class="st2" x1="1171" y1="65" x2="1171" y2="15.6"/>
	<line class="st2" x1="1161.3" y1="198.4" x2="1161.3" y2="107.7"/>
	<line class="st2" x1="1161.3" y1="94.6" x2="1161.3" y2="0.7"/>
</g>
<g>
	<line class="st2" x1="1324.6" y1="183.5" x2="1324.6" y2="134.1"/>
	<line class="st2" x1="1324.6" y1="134.1" x2="1324.6" y2="65"/>
	<line class="st2" x1="1324.6" y1="65" x2="1324.6" y2="15.6"/>
	<line class="st2" x1="1459" y1="183.5" x2="1459" y2="134.1"/>
	<line class="st2" x1="1459" y1="134.1" x2="1459" y2="65"/>
	<line class="st2" x1="1459" y1="65" x2="1459" y2="15.6"/>
	<line class="st2" x1="1334.1" y1="198.4" x2="1334.1" y2="107.7"/>
	<line class="st2" x1="1334.1" y1="94.6" x2="1334.1" y2="0.7"/>
	<line class="st2" x1="1343.8" y1="183.5" x2="1343.8" y2="134.1"/>
	<line class="st2" x1="1343.8" y1="134.1" x2="1343.8" y2="65"/>
	<line class="st2" x1="1343.8" y1="65" x2="1343.8" y2="15.6"/>
	<line class="st2" x1="1353.3" y1="198.4" x2="1353.3" y2="107.7"/>
	<line class="st2" x1="1353.3" y1="94.6" x2="1353.3" y2="0.7"/>
	<line class="st2" x1="1363" y1="183.5" x2="1363" y2="134.1"/>
	<line class="st2" x1="1363" y1="134.1" x2="1363" y2="65"/>
	<line class="st2" x1="1363" y1="65" x2="1363" y2="15.6"/>
	<line class="st2" x1="1372.5" y1="198.4" x2="1372.5" y2="107.7"/>
	<line class="st2" x1="1372.5" y1="94.6" x2="1372.5" y2="0.7"/>
	<line class="st2" x1="1382.2" y1="183.5" x2="1382.2" y2="134.1"/>
	<line class="st2" x1="1382.2" y1="134.1" x2="1382.2" y2="65"/>
	<line class="st2" x1="1382.2" y1="65" x2="1382.2" y2="15.6"/>
	<line class="st2" x1="1391.7" y1="198.4" x2="1391.7" y2="107.7"/>
	<line class="st2" x1="1391.7" y1="94.6" x2="1391.7" y2="0.7"/>
	<line class="st2" x1="1401.4" y1="183.5" x2="1401.4" y2="134.1"/>
	<line class="st2" x1="1401.4" y1="134.1" x2="1401.4" y2="65"/>
	<line class="st2" x1="1401.4" y1="65" x2="1401.4" y2="15.6"/>
	<line class="st2" x1="1411" y1="198.4" x2="1411" y2="107.7"/>
	<line class="st2" x1="1411" y1="94.6" x2="1411" y2="0.7"/>
	<line class="st2" x1="1420.6" y1="183.5" x2="1420.6" y2="134.1"/>
	<line class="st2" x1="1420.6" y1="134.1" x2="1420.6" y2="65"/>
	<line class="st2" x1="1420.6" y1="65" x2="1420.6" y2="15.6"/>
	<line class="st2" x1="1430.2" y1="198.4" x2="1430.2" y2="107.7"/>
	<line class="st2" x1="1430.2" y1="94.6" x2="1430.2" y2="0.7"/>
	<line class="st2" x1="1439.8" y1="183.5" x2="1439.8" y2="134.1"/>
	<line class="st2" x1="1439.8" y1="134.1" x2="1439.8" y2="65"/>
	<line class="st2" x1="1439.8" y1="65" x2="1439.8" y2="15.6"/>
	<line class="st2" x1="1449.4" y1="198.4" x2="1449.4" y2="107.7"/>
	<line class="st2" x1="1449.4" y1="94.6" x2="1449.4" y2="0.7"/>
	<line class="st2" x1="1476.2" y1="183.5" x2="1476.2" y2="134.1"/>
	<line class="st2" x1="1476.2" y1="134.1" x2="1476.2" y2="65"/>
	<line class="st2" x1="1476.2" y1="65" x2="1476.2" y2="15.6"/>
	<line class="st2" x1="1466.5" y1="198.4" x2="1466.5" y2="107.7"/>
	<line class="st2" x1="1466.5" y1="94.6" x2="1466.5" y2="0.7"/>
</g>
</svg>
